<svg id="Layer_1" data-name="Layer 1" xmlns="http://www.w3.org/2000/svg" viewBox="0 0 1909.7 260.3"><path d="M199.77,307.71q22,10.4,32.73,28.3t10.79,41.4q0,25-11.3,44.47T197.9,452.3q-22.8,11-55.51,11H110.44v83.56H57.3V297.31h87.41Q177.82,297.31,199.77,307.71ZM174.1,410.33q13-9,13-31.38,0-18.87-11.6-28.3t-32.42-9.44H110.44v78.17h26.72Q161.13,419.38,174.1,410.33Z" transform="translate(-57.3 -291.92)"/><path d="M449.29,543.76v3.08h-61.1L325.52,456h-21v90.88H251.37V297.31h83.56q33.1,0,55.25,10.21t32.93,27.72q10.77,17.53,10.78,39.86,0,26.19-13.09,45.24t-38.51,28.3Zm-144.78-129h24q23.6,0,36.38-8.86t12.79-29.26q0-17.72-11.41-26.57t-31.86-8.86H304.51Z" transform="translate(-57.3 -291.92)"/><path d="M492.61,535.67a105.88,105.88,0,0,1-42.16-46q-14.25-29.44-14.25-68.34,0-43.12,17.33-72.2t46-43.13q28.68-14.06,63.73-14.06,40.05,0,68,16.56a104.89,104.89,0,0,1,42,46q14,29.44,14,68.35,0,43.13-17.13,72.2T624.3,538.17q-28.68,14.05-63.73,14.06Q520.52,552.23,492.61,535.67Zm106.66-38.31q16-10.2,23.88-29.27T631,423.23q0-40.82-17.33-63.73t-50.44-22.91q-34.65,0-52.75,22.53t-18.1,61.8q0,40.82,17.33,63.73t50.82,22.91Q583.3,507.56,599.27,497.36Z" transform="translate(-57.3 -291.92)"/><path d="M1185.53,297.31l89.72,246.45v3.08h-58.14l-20-59.69h-92.41L1085,546.84h-57.38v-3.08l89.72-246.45ZM1119.3,443.25h63.15l-32-95.11Z" transform="translate(-57.3 -291.92)"/><polygon points="643.82 5.39 643.82 254.91 696.96 254.91 696.96 155.95 778.49 155.95 794.47 112.05 696.96 112.05 696.96 49.67 810.56 49.67 810.56 5.39 643.82 5.39"/><path d="M1420,297.31h55.83v3.08l-91.26,246.45h-60.45l-91.65-246.45v-3.08h57.76l65.08,194.46Z" transform="translate(-57.3 -291.92)"/><path d="M1513.8,535.67a106,106,0,0,1-42.17-46q-14.25-29.44-14.24-68.34,0-43.12,17.32-72.2t46-43.13q28.68-14.06,63.73-14.06,40,0,68,16.56a104.81,104.81,0,0,1,42,46q14.05,29.44,14.06,68.35,0,43.13-17.14,72.2t-45.82,43.12q-28.7,14.05-63.73,14.06Q1541.71,552.23,1513.8,535.67Zm106.66-38.31q16-10.2,23.88-29.27t7.89-44.86q0-40.82-17.33-63.73t-50.44-22.91q-34.67,0-52.76,22.53t-18.09,61.8q0,40.82,17.32,63.73t50.83,22.91Q1604.49,507.56,1620.46,497.36Z" transform="translate(-57.3 -291.92)"/><path d="M1954.47,299.12A25.14,25.14,0,0,1,1967,321.05a24.45,24.45,0,0,1-3.39,12.63,25.13,25.13,0,0,1-9.14,9.09,24.74,24.74,0,0,1-12.63,3.33,25.18,25.18,0,0,1-22-12.42,24.45,24.45,0,0,1-3.39-12.63,25,25,0,0,1,12.58-21.93,25.2,25.2,0,0,1,12.78-3.33A24.74,24.74,0,0,1,1954.47,299.12Zm-3.08,38.66a18.25,18.25,0,0,0,6.78-7,19.78,19.78,0,0,0,2.46-9.7,20,20,0,0,0-2.46-9.81,18.4,18.4,0,0,0-16.33-9.6,18.79,18.79,0,0,0-9.7,2.57,18.17,18.17,0,0,0-6.83,7,20,20,0,0,0-2.46,9.81,19.78,19.78,0,0,0,2.46,9.7,18.17,18.17,0,0,0,6.83,7,18.69,18.69,0,0,0,9.7,2.57A18.23,18.23,0,0,0,1951.39,337.78Zm-3.18-13.34,5.75,9.85h-8.32l-4.72-8.72h-1.85v8.72h-7.6V307.18h10.17a14.39,14.39,0,0,1,6.41,1.29,9.11,9.11,0,0,1,3.91,3.39,8.64,8.64,0,0,1,1.28,4.57Q1953.24,322.28,1948.21,324.44Zm-9.14-4.32h2.16c2.8,0,4.21-1.09,4.21-3.28a3.34,3.34,0,0,0-.83-2.21,3.15,3.15,0,0,0-2.56-1h-3Z" transform="translate(-57.3 -291.92)"/><path d="M1920.23,543.76v3.08h-61.1L1796.47,456h-21v90.88h-53.14V297.31h83.56q33.12,0,55.26,10.21t32.92,27.72q10.77,17.53,10.78,39.86,0,26.19-13.09,45.24t-38.51,28.3Zm-144.78-129h24q23.61,0,36.39-8.86t12.78-29.26q0-17.72-11.41-26.57t-31.85-8.86h-29.9Z" transform="translate(-57.3 -291.92)"/><polygon points="873.32 207.94 873.32 5.39 820.18 5.39 820.18 254.91 958.48 254.91 975.32 207.94 873.32 207.94"/></svg>