<svg xmlns="http://www.w3.org/2000/svg" viewBox="0 0 1684.27 340.71"><defs><style>.cls-1,.cls-2,.cls-3,.cls-4,.cls-5{fill:none;stroke:#0071bc;stroke-miterlimit:10;}.cls-1{stroke-width:14px;}.cls-2{stroke-width:9px;}.cls-3{stroke-width:8px;}.cls-4{stroke-width:5px;}.cls-5{stroke-width:6px;}</style></defs><g id="Layer_1" data-name="Layer 1"><path d="M483.3,310.22q17.1,8.1,25.5,22t8.4,32.25q0,19.51-8.8,34.65t-26.56,23.7q-17.76,8.55-43.25,8.55H413.7v65.1H372.3V302.12h68.1Q466.2,302.12,483.3,310.22Zm-20,79.95q10.11-7,10.11-24.45,0-14.69-9-22.05t-25.26-7.35H413.7v60.9h20.82Q453.2,397.22,463.29,390.17Z" transform="translate(-175.86 -209)"/><path d="M677.7,494.12v2.4H630.09l-48.82-70.8H564.9v70.8H523.5V302.12h65.1q25.8,0,43,7.95t25.65,21.6a58.17,58.17,0,0,1,8.4,31.05q0,20.41-10.2,35.25t-30,22ZM564.9,393.62h18.69q18.39,0,28.35-6.9t10-22.8q0-13.79-8.89-20.7t-24.82-6.9H564.9Z" transform="translate(-175.86 -209)"/><path d="M711.45,487.82A82.4,82.4,0,0,1,678.6,452q-11.11-23-11.1-53.25,0-33.59,13.5-56.25t35.85-33.6q22.33-10.94,49.65-10.95,31.18,0,53,12.9a81.76,81.76,0,0,1,32.7,35.85q10.94,22.95,11,53.25,0,33.61-13.35,56.25t-35.7,33.6q-22.37,11-49.65,11Q733.19,500.72,711.45,487.82ZM794.55,458q12.44-7.94,18.6-22.8t6.15-34.95q0-31.79-13.5-49.65t-39.3-17.85q-27,0-41.1,17.55t-14.1,48.15q0,31.8,13.5,49.65t39.6,17.85Q782.09,465.92,794.55,458Z" transform="translate(-175.86 -209)"/><path d="M1251.29,302.12l69.9,192v2.4h-45.3l-15.6-46.5h-72l-15.3,46.5h-44.7v-2.4l69.9-192Zm-51.6,113.7h49.2l-24.9-74.1Z" transform="translate(-175.86 -209)"/><polygon points="698.04 93.12 698.04 287.52 739.44 287.52 739.44 210.42 802.96 210.42 815.41 176.22 739.44 176.22 739.44 127.62 827.94 127.62 827.94 93.12 698.04 93.12"/><path d="M1434,302.12h43.5v2.4l-71.11,192h-47.1l-71.39-192v-2.4h45l50.71,151.5Z" transform="translate(-175.86 -209)"/><path d="M1507,487.82A82.52,82.52,0,0,1,1474.19,452q-11.1-23-11.1-53.25,0-33.59,13.5-56.25t35.85-33.6q22.35-10.94,49.65-10.95,31.2,0,53,12.9a81.65,81.65,0,0,1,32.7,35.85q11,22.95,11,53.25,0,33.61-13.35,56.25t-35.7,33.6q-22.35,11-49.65,11Q1528.79,500.72,1507,487.82Zm83.1-29.85q12.45-7.94,18.6-22.8t6.15-34.95q0-31.79-13.5-49.65t-39.3-17.85q-27,0-41.1,17.55t-14.1,48.15q0,31.8,13.5,49.65t39.6,17.85Q1577.69,465.92,1590.14,458Z" transform="translate(-175.86 -209)"/><path d="M1850.37,303.53a19.58,19.58,0,0,1,9.76,17.08,19,19,0,0,1-2.64,9.84,19.49,19.49,0,0,1-7.12,7.08,19.21,19.21,0,0,1-9.84,2.6,19.54,19.54,0,0,1-10-2.6,19.3,19.3,0,0,1-7.16-7.08,19,19,0,0,1-2.64-9.84,19.51,19.51,0,0,1,9.8-17.08,19.64,19.64,0,0,1,10-2.6A19.3,19.3,0,0,1,1850.37,303.53Zm-2.4,30.12a14.26,14.26,0,0,0,5.28-5.48,15.4,15.4,0,0,0,1.92-7.56,15.56,15.56,0,0,0-1.92-7.64,14.32,14.32,0,0,0-12.72-7.48,14.63,14.63,0,0,0-7.56,2,14.22,14.22,0,0,0-5.32,5.48,15.56,15.56,0,0,0-1.92,7.64,15.4,15.4,0,0,0,1.92,7.56,14.15,14.15,0,0,0,5.32,5.48,14.54,14.54,0,0,0,7.56,2A14.21,14.21,0,0,0,1848,333.65Zm-2.48-10.4,4.48,7.68h-6.48l-3.68-6.8h-1.44v6.8h-5.92V309.81h7.92a11.39,11.39,0,0,1,5,1,7.15,7.15,0,0,1,3,2.64,6.7,6.7,0,0,1,1,3.56A6.2,6.2,0,0,1,1845.49,323.25Zm-7.12-3.36h1.68c2.18,0,3.28-.85,3.28-2.56a2.59,2.59,0,0,0-.64-1.72,2.51,2.51,0,0,0-2-.76h-2.32Z" transform="translate(-175.86 -209)"/><path d="M1823.69,494.12v2.4h-47.6l-48.82-70.8h-16.38v70.8h-41.4V302.12h65.1q25.8,0,43.05,7.95t25.65,21.6a58.08,58.08,0,0,1,8.4,31.05q0,20.41-10.2,35.25t-30,22Zm-112.8-100.5h18.7q18.39,0,28.34-6.9t10-22.8q0-13.79-8.88-20.7t-24.82-6.9h-23.3Z" transform="translate(-175.86 -209)"/><polygon points="876.84 250.92 876.84 93.12 835.44 93.12 835.44 287.52 943.18 287.52 956.31 250.92 876.84 250.92"/></g><g id="Layer_2" data-name="Layer 2"><circle class="cls-1" cx="78.5" cy="78.5" r="71.48"/><circle class="cls-2" cx="49.17" cy="201.64" r="29.86"/><circle class="cls-3" cx="132.68" cy="233.7" r="21.34"/><circle class="cls-4" cx="118.61" cy="329.96" r="8.25"/><circle class="cls-5" cx="91.8" cy="288.41" r="12.76"/></g></svg>