<svg xmlns="http://www.w3.org/2000/svg" viewBox="0 0 1700.48 435.7"><defs><style>.cls-1{fill:#f7ae00;}.cls-2,.cls-3{fill:none;stroke:#f7ae00;stroke-width:15px;}.cls-2{stroke-linejoin:round;}.cls-3{stroke-miterlimit:10;}</style></defs><g id="Layer_4" data-name="Layer 4"><path class="cls-1" d="M285.83,208c2.88,0,7.74,1.56,10.42,1.58,3.48,0,2.55,4.94,2.76,7.53.08,1.06.42,1.42,1,1.42.81,0,2.11-.72,3.83-1.14a10.56,10.56,0,0,1,2.28-.46c.22,0,.47,0,1,0,.25,0,.57,0,1,0h.06c2.76,0,3.36,7.67,1.56,9.85a13.74,13.74,0,0,1-2.61,2.69c-1.7,1.59,0,3.81.18,6.4.11,1.42,1.49,1.73,3.29,1.73,1.43,0,3.13-.19,4.66-.19h.13c3.48,0,2.78,3.71,3.66,6.42s3.69,5.71,6.46,5.71h.13c2.66-.1,2.41-1.32,5.9-1.32l.63,0a13.67,13.67,0,0,1,1.63-.1c6.85,0,6.42,5.45,6.42,5.45s-.61,6.88-.17,8.24,3.06,4.08,7.54,6.2c3.7,1.76-2,5.2-4,6.35a2.25,2.25,0,0,1-1.1.28l-.4,0-11.14-2a1.28,1.28,0,0,1-.28-.07,452.15,452.15,0,0,0-51-12.85,458.74,458.74,0,0,0-62.94-7.42,1.33,1.33,0,0,1-.28,0l-.72-.13a2.26,2.26,0,0,1-1.86-2.46,8.74,8.74,0,0,0,0-3c-.32-1,.3-3.07,1-4.36a2.25,2.25,0,0,1,1.71-1.19,5.46,5.46,0,0,0,3.91-1.91,2.34,2.34,0,0,1,1.75-.83h0a37.18,37.18,0,0,1,5.64.78l.32,0c1.69,0,1.6-3,1.41-5.43-.07-.79.29-1.08.88-1.08,1.34,0,3.85,1.53,5.18,2.23a1.4,1.4,0,0,0,.69.15c2.2,0,6.14-3.44,5.75-4.65s2.09-4,2.85-4.9a2,2,0,0,1,.47-.4c1.18-.76,6.14-4.1,6.66-6.8.33-1.76,2.45-2.13,4.21-2.13.51,0,1,0,1.39.07a2.31,2.31,0,0,1,1.45.75,1.63,1.63,0,0,0,1.21.55c.66,0,1.55-.4,2.71-1.67a2.32,2.32,0,0,0,.52-2c-.76-3.29,2.81-4.37,4.9-4.71l.37,0a2.24,2.24,0,0,1,1.75.83c.55.67,1.35,1.45,2.07,1.45.44,0,.85-.28,1.17-1,.42-1,.81-1.34,1.24-1.34.82,0,1.81,1.29,3.59,1.63,2.33.44,2,1.32,2.77,1.32a2,2,0,0,0,.48-.07c1.46-.35.35-1.84,2-3.43a2.88,2.88,0,0,1,1.93-.5m0-15h0a18.59,18.59,0,0,0-7.37,1.43,15.38,15.38,0,0,0-3.45-.38h0a15.39,15.39,0,0,0-3.23.35,17.3,17.3,0,0,0-5.8,0c-6.83,1.12-11,4.22-13.37,7.1a17.65,17.65,0,0,0-14.07,10.14c-.39.3-.85.64-1.3.92a17.68,17.68,0,0,0-3.57,3.06c-.46.52-1.11,1.26-1.84,2.19q-.69-.06-1.41-.06h0a15.92,15.92,0,0,0-11.7,5.06c-.37.4-.71.81-1,1.23a17.33,17.33,0,0,0-5.87,2.86,17.23,17.23,0,0,0-10.37,8.62,22.89,22.89,0,0,0-2.55,13,17.33,17.33,0,0,0,14.19,18.4l.72.13a17.72,17.72,0,0,0,2.18.24,446.91,446.91,0,0,1,60.75,7.15l.11,0,.11,0a436.38,436.38,0,0,1,49.18,12.42,17,17,0,0,0,2.13.52l11.15,2a17,17,0,0,0,3,.27,17.36,17.36,0,0,0,8.33-2.14c8.87-4.88,13.25-11.1,13-18.5a16.43,16.43,0,0,0-8.66-14l0-.15v-.14a20.25,20.25,0,0,0-5.24-15,21.6,21.6,0,0,0-16.14-6.63c-.65,0-1.31,0-2,.07a19,19,0,0,0-1-2,17.29,17.29,0,0,0-5.23-5.71A26,26,0,0,0,323.54,212a17.23,17.23,0,0,0-12.9-9.92,17.2,17.2,0,0,0-13.91-7.53c-.52-.07-1.66-.31-2.43-.47a42.41,42.41,0,0,0-8.47-1.12Z" transform="translate(-159.65 -149.88)"/><path class="cls-2" d="M190.54,223.6" transform="translate(-159.65 -149.88)"/><path class="cls-2" d="M232.64,225.5l-29.35-68.07s-3-.58-9.62,2.19-7.8,6.08-7.8,6.08l27.82,65.47" transform="translate(-159.65 -149.88)"/><path class="cls-3" d="M211.87,244.61" transform="translate(-159.65 -149.88)"/><path class="cls-3" d="M346.19,284.37a448.82,448.82,0,0,0-134.38-24.12s-19.46,137.86,6.13,264c0,0,5,16.09-27.47,16.86s-21.54,13.31-21.54,13.31,9.07,11.45,56,19.3h0c46.71,8.95,59.2,1.37,59.2,1.37s14.64-7.94-15.57-20-19.89-25.36-19.89-25.36C316.5,420.39,346.19,284.37,346.19,284.37Z" transform="translate(-159.65 -149.88)"/><path class="cls-3" d="M312,217.85l14.46-10.37L294.56,163,250,194.93l12.88,18" transform="translate(-159.65 -149.88)"/><path class="cls-3" d="M301.25,196.64" transform="translate(-159.65 -149.88)"/></g><g id="Layer_1" data-name="Layer 1"><path d="M483.3,310.22q17.1,8.1,25.5,22t8.4,32.25q0,19.51-8.8,34.65t-26.56,23.7q-17.76,8.55-43.25,8.55H413.7v65.1H372.3V302.12h68.1Q466.2,302.12,483.3,310.22Zm-20,79.95q10.11-7,10.11-24.45,0-14.69-9-22.05t-25.26-7.35H413.7v60.9h20.82Q453.2,397.22,463.29,390.17Z" transform="translate(-159.65 -149.88)"/><path d="M677.7,494.12v2.4H630.09l-48.82-70.8H564.9v70.8H523.5V302.12h65.1q25.8,0,43,7.95t25.65,21.6a58.17,58.17,0,0,1,8.4,31.05q0,20.41-10.2,35.25t-30,22ZM564.9,393.62h18.69q18.39,0,28.35-6.9t10-22.8q0-13.79-8.89-20.7t-24.82-6.9H564.9Z" transform="translate(-159.65 -149.88)"/><path d="M711.45,487.82A82.4,82.4,0,0,1,678.6,452q-11.11-23-11.1-53.25,0-33.59,13.5-56.25t35.85-33.6q22.33-10.94,49.65-10.95,31.18,0,53,12.9a81.76,81.76,0,0,1,32.7,35.85q10.94,22.95,11,53.25,0,33.61-13.35,56.25t-35.7,33.6q-22.37,11-49.65,11Q733.19,500.72,711.45,487.82ZM794.55,458q12.44-7.94,18.6-22.8t6.15-34.95q0-31.79-13.5-49.65t-39.3-17.85q-27,0-41.1,17.55t-14.1,48.15q0,31.8,13.5,49.65t39.6,17.85Q782.09,465.92,794.55,458Z" transform="translate(-159.65 -149.88)"/><path d="M1251.29,302.12l69.9,192v2.4h-45.3l-15.6-46.5h-72l-15.3,46.5h-44.7v-2.4l69.9-192Zm-51.6,113.7h49.2l-24.9-74.1Z" transform="translate(-159.65 -149.88)"/><polygon points="714.25 152.25 714.25 346.65 755.65 346.65 755.65 269.55 819.16 269.55 831.62 235.35 755.65 235.35 755.65 186.75 844.15 186.75 844.15 152.25 714.25 152.25"/><path d="M1434,302.12h43.5v2.4l-71.11,192h-47.1l-71.39-192v-2.4h45l50.71,151.5Z" transform="translate(-159.65 -149.88)"/><path d="M1507,487.82A82.52,82.52,0,0,1,1474.19,452q-11.1-23-11.1-53.25,0-33.59,13.5-56.25t35.85-33.6q22.35-10.94,49.65-10.95,31.2,0,53,12.9a81.65,81.65,0,0,1,32.7,35.85q11,22.95,11,53.25,0,33.61-13.35,56.25t-35.7,33.6q-22.35,11-49.65,11Q1528.79,500.72,1507,487.82Zm83.1-29.85q12.45-7.94,18.6-22.8t6.15-34.95q0-31.79-13.5-49.65t-39.3-17.85q-27,0-41.1,17.55t-14.1,48.15q0,31.8,13.5,49.65t39.6,17.85Q1577.69,465.92,1590.14,458Z" transform="translate(-159.65 -149.88)"/><path d="M1850.37,303.53a19.58,19.58,0,0,1,9.76,17.08,19,19,0,0,1-2.64,9.84,19.49,19.49,0,0,1-7.12,7.08,19.21,19.21,0,0,1-9.84,2.6,19.54,19.54,0,0,1-10-2.6,19.3,19.3,0,0,1-7.16-7.08,19,19,0,0,1-2.64-9.84,19.51,19.51,0,0,1,9.8-17.08,19.64,19.64,0,0,1,10-2.6A19.3,19.3,0,0,1,1850.37,303.53Zm-2.4,30.12a14.26,14.26,0,0,0,5.28-5.48,15.4,15.4,0,0,0,1.92-7.56,15.56,15.56,0,0,0-1.92-7.64,14.32,14.32,0,0,0-12.72-7.48,14.63,14.63,0,0,0-7.56,2,14.22,14.22,0,0,0-5.32,5.48,15.56,15.56,0,0,0-1.92,7.64,15.4,15.4,0,0,0,1.92,7.56,14.15,14.15,0,0,0,5.32,5.48,14.54,14.54,0,0,0,7.56,2A14.21,14.21,0,0,0,1848,333.65Zm-2.48-10.4,4.48,7.68h-6.48l-3.68-6.8h-1.44v6.8h-5.92V309.81h7.92a11.39,11.39,0,0,1,5,1,7.15,7.15,0,0,1,3,2.64,6.7,6.7,0,0,1,1,3.56A6.2,6.2,0,0,1,1845.49,323.25Zm-7.12-3.36h1.68c2.18,0,3.28-.85,3.28-2.56a2.59,2.59,0,0,0-.64-1.72,2.51,2.51,0,0,0-2-.76h-2.32Z" transform="translate(-159.65 -149.88)"/><path d="M1823.69,494.12v2.4h-47.6l-48.82-70.8h-16.38v70.8h-41.4V302.12h65.1q25.8,0,43.05,7.95t25.65,21.6a58.08,58.08,0,0,1,8.4,31.05q0,20.41-10.2,35.25t-30,22Zm-112.8-100.5h18.7q18.39,0,28.34-6.9t10-22.8q0-13.79-8.88-20.7t-24.82-6.9h-23.3Z" transform="translate(-159.65 -149.88)"/><polygon points="893.05 310.05 893.05 152.25 851.65 152.25 851.65 346.65 959.39 346.65 972.52 310.05 893.05 310.05"/></g></svg>